<?xml version="1.0" standalone="no"?><!DOCTYPE svg PUBLIC "-//W3C//DTD SVG 1.1//EN" "http://www.w3.org/Graphics/SVG/1.1/DTD/svg11.dtd"><svg t="1556357099707" class="icon" style="" viewBox="0 0 1024 1024" version="1.1" xmlns="http://www.w3.org/2000/svg" p-id="1525" xmlns:xlink="http://www.w3.org/1999/xlink" width="48" height="48"><defs><style type="text/css"></style></defs><path d="M73.949283 915.051819 166.527012 346.037486c1.693495-9.590827 10.725469-16.93495 19.757442-16.93495l713.52591 0 0-84.674752c0-9.590827-7.338479-16.93495-16.93495-16.93495l-429.018743 0L378.213892 137.173098 33.869901 137.173098c-9.596472 0-16.93495 7.344123-16.93495 16.93495L16.93495 898.116869c0 9.590827 7.338479 16.93495 16.93495 16.93495L73.949283 915.051819z" p-id="1526" fill="#ffffff"></path><path d="M1009.887541 399.100331 239.347299 399.100331c-9.037619 0-18.063947 7.338479-19.192944 16.370452L132.657111 899.245865c-1.693495 9.037619 4.515987 16.370452 13.54796 16.370452l770.540243 0c9.031974 0 18.063947-7.338479 19.187299-16.370452L1023.435502 415.470783C1025.128997 407.003308 1018.919515 399.100331 1009.887541 399.100331zM719.170893 688.687982l-111.206174 0 0 111.206174L542.482911 799.894157 542.482911 688.687982 430.712238 688.687982l0-66.046307L541.918412 622.641676 541.918412 511.435502l66.046307 0L607.964719 622.641676l111.206174 0L719.170893 688.687982z" p-id="1527" fill="#ffffff"></path></svg>