<?xml version="1.0" standalone="no"?><!DOCTYPE svg PUBLIC "-//W3C//DTD SVG 1.1//EN" "http://www.w3.org/Graphics/SVG/1.1/DTD/svg11.dtd"><svg t="1556877232474" class="icon" style="" viewBox="0 0 1024 1024" version="1.1" xmlns="http://www.w3.org/2000/svg" p-id="9057" xmlns:xlink="http://www.w3.org/1999/xlink" width="128" height="128"><defs><style type="text/css"></style></defs><path d="M501.057275 841.23342c-185.67584 0-336.74858-151.057391-336.74858-336.753697 0-185.689143 151.071717-336.747557 336.74858-336.747557 185.688119 0 336.76086 151.058414 336.76086 336.747557C837.817112 690.176029 686.744371 841.23342 501.057275 841.23342zM501.057275 222.711338c-155.367557 0-281.769408 126.400828-281.769408 281.768385 0 155.361417 126.400828 281.775548 281.769408 281.775548 155.38086 0 281.780665-126.414131 281.780665-281.775548C782.83794 349.112166 656.437112 222.711338 501.057275 222.711338z" p-id="9058"></path><path d="M339.3268 358.682126c-3.691065 0-7.368828-1.476631-10.080589-4.38896-5.167696-5.569856-4.832052-14.267958 0.724501-19.436678 27.369348-25.39539 60.791551-43.959188 96.65741-53.69083 7.342222-2.040473 14.871709 2.349511 16.85897 9.664104 1.986237 7.328919-2.335185 14.872732-9.664104 16.85897-31.583323 8.577353-61.033052 24.938995-85.153402 47.327912C346.024339 357.474624 342.668918 358.682126 339.3268 358.682126z" p-id="9059"></path><path d="M282.226315 445.285552c-1.530866 0-3.087315-0.255827-4.603855-0.792039-7.154957-2.550079-10.899234-10.402931-8.349155-17.556864 3.90596-10.993378 8.698103-21.785166 14.241352-32.066323 3.596921-6.670933 11.946077-9.207709 18.61701-5.569856 6.684236 3.596921 9.181103 11.932774 5.584182 18.61701-4.886287 9.04705-9.101285 18.549471-12.536524 28.227901C293.178761 441.768449 287.877011 445.285552 282.226315 445.285552z" p-id="9060"></path><path d="M508.585739 312.696792c-15.179724 0-27.489074-12.308327-27.489074-27.490098L481.096664 92.780103c0-15.180747 12.30935-27.490098 27.489074-27.490098 15.181771 0 27.490098 12.308327 27.490098 27.490098l0 192.426591C536.075837 300.388465 523.76751 312.696792 508.585739 312.696792z" p-id="9061"></path><path d="M508.585739 958.709995c-15.179724 0-27.489074-12.32163-27.489074-27.489074L481.096664 738.793306c0-15.196097 12.30935-27.489074 27.489074-27.489074 15.181771 0 27.490098 12.294001 27.490098 27.489074l0 192.427614C536.075837 946.388365 523.76751 958.709995 508.585739 958.709995z" p-id="9062"></path><path d="M915.69583 546.365692 723.268216 546.365692c-15.180747 0-27.489074-12.32163-27.489074-27.490098 0-15.187911 12.308327-27.496238 27.489074-27.496238l192.427614 0c15.180747 0 27.489074 12.308327 27.489074 27.496238C943.184905 534.044062 930.876578 546.365692 915.69583 546.365692z" p-id="9063"></path><path d="M269.68979 546.365692 77.262176 546.365692c-15.180747 0-27.490098-12.32163-27.490098-27.490098 0-15.187911 12.308327-27.496238 27.490098-27.496238l192.426591 0c15.180747 0 27.490098 12.308327 27.490098 27.496238C297.179888 534.044062 284.870538 546.365692 269.68979 546.365692z" p-id="9064"></path></svg>